# xmcd
#
# Track frame offsets:
#	150
#	18869
#	37581
#	55747
#	77464
#	100473
#	119692
#	136962
#	156389
#	174243
#	193975
#	217165
#	230936
#	246757
#	261419
#	278045
#	291987
#	308621
#	326065
#	342730
#
# Disc length: 4785 seconds
#
# Revision: 0
# Processed by: cddbd v1.5.2PL0 Copyright (c) Steve Scherf et al.
# Submitted via: audiograbber 1.83.01
#
DISCID=3112af14
DTITLE=Frank Zander - Best of Wahnsinn [CD 1)
DYEAR=2011
DGENRE=Schlager
TTITLE0=Hier kommt Kurt
TTITLE1=Oh, Susi (Jubiläums Version)
TTITLE2=Ich trink auf dein Wohl, Marie (Jubiläums Version)
TTITLE3=Captain Starlight
TTITLE4=Der Ur-Ur-Enkel von Frankenstein
TTITLE5=Nick Nack Man
TTITLE6=Nachbar
TTITLE7=Jeannie (Die reine Wahrheit)
TTITLE8=Marlene
TTITLE9=Disco-Polka
TTITLE10=Disco Planet (Wir beamen)
TTITLE11=Axel macht Musik
TTITLE12=Spass ist für alle da (Centerfold)
TTITLE13=Frank Zander (Curry Rap Mix)
TTITLE14=Der letzte Kunde
TTITLE15=Wir gehören zusammen 2009
TTITLE16=Wir steh'n auf
TTITLE17=Halt mein Freund
TTITLE18=Hier kommt Kurt (Reloaded 2011)
TTITLE19=Nur nach Hause...(sailing)
EXTD=
EXTT0=
EXTT1=
EXTT2=
EXTT3=
EXTT4=
EXTT5=
EXTT6=
EXTT7=
EXTT8=
EXTT9=
EXTT10=
EXTT11=
EXTT12=
EXTT13=
EXTT14=
EXTT15=
EXTT16=
EXTT17=
EXTT18=
EXTT19=
PLAYORDER=
